<svg id="Layer_1" data-name="Layer 1" xmlns="http://www.w3.org/2000/svg" viewBox="0 0 1283.75 779.4209"><defs><style>.cls-1{stroke:#000;stroke-linecap:round;}</style></defs><title>logo_black</title><path id="NCT_Logo" data-name="NCT Logo" class="cls-1" d="M1508.1405,150.79H1269.91a93.2349,93.2349,0,0,0-53.88,17.145L1013.88,311.08a93.2343,93.2343,0,0,1-107.76,0L703.97,167.9346a93.2346,93.2346,0,0,0-53.88-17.145h-238.23A93.2343,93.2343,0,0,0,318.625,244.024l0,591.9518A93.2347,93.2347,0,0,0,411.86,929.21H649.7675a93.2336,93.2336,0,0,0,53.8463-17.1212l202.54-143.2879a93.2341,93.2341,0,0,1,107.6931,0l202.54,143.2879a93.234,93.234,0,0,0,53.8465,17.1212h237.9074a93.2343,93.2343,0,0,0,93.2344-93.2343V244.024A93.2343,93.2343,0,0,0,1508.1405,150.79ZM883.2543,549.5309a93.4332,93.4332,0,0,1-39.2511,76.0526L656.4756,758.61a92.8825,92.8825,0,0,1-53.663,17.1088H524.0554c-24.9947.5308-46.9891-21.5369-46.4571-46.5811V356.3436c-.5293-25.0613,21.48-47.1149,46.4571-46.5808h78.8328a92.8389,92.8389,0,0,1,53.6963,17.1327L844.0372,459.9923a93.4331,93.4331,0,0,1,39.2178,76.0293Zm559.1474,179.5709a46.6172,46.6172,0,0,1-46.6173,46.6172h-78.43a93.2353,93.2353,0,0,1-53.9439-17.19L1076.0366,625.6117a93.2346,93.2346,0,0,1-39.2908-76.0435V535.9854a93.234,93.234,0,0,1,39.2575-76.0213l187.2983-132.9875a93.2353,93.2353,0,0,1,53.9772-17.2138h78.5057a46.6172,46.6172,0,0,1,46.6173,46.6172Z" transform="translate(-318.125 -150.2896)"/></svg>